<svg width="124" height="124" viewBox="0 0 124 124" fill="none" xmlns="http://www.w3.org/2000/svg">
<path d="M72.333 56.8333C72.333 53.9799 74.6462 51.6667 77.4997 51.6667C80.3531 51.6667 82.6663 53.9799 82.6663 56.8333V67.1667C82.6663 70.0201 80.3531 72.3333 77.4997 72.3333C74.6462 72.3333 72.333 70.0201 72.333 67.1667V56.8333Z" stroke="#ABABAB" stroke-width="7.75"/>
<path d="M72.3737 98.1817L68.4987 98.1704V98.1704L72.3737 98.1817ZM72.4038 87.8333L76.2788 87.8446V87.8333H72.4038ZM16.2725 97.2802L13.5359 100.024H13.5359L16.2725 97.2802ZM16.2725 26.7198L13.5359 23.9763V23.9763L16.2725 26.7198ZM15.2573 52.9772L13.3679 56.3604H13.3679L15.2573 52.9772ZM10.3877 46.4456L6.51608 46.2828V46.2828L10.3877 46.4456ZM15.2573 71.0228L13.3679 67.6395L13.3679 67.6395L15.2573 71.0228ZM10.3877 77.5544L14.2592 77.3916L10.3877 77.5544ZM108.742 52.9772L110.631 56.3604V56.3604L108.742 52.9772ZM113.612 46.4456L117.483 46.2828V46.2828L113.612 46.4456ZM107.727 26.7198L110.463 23.9763V23.9763L107.727 26.7198ZM108.742 71.0228L106.853 74.406L106.853 74.406L108.742 71.0228ZM113.612 77.5544L117.483 77.7172V77.7172L113.612 77.5544ZM107.727 97.2802L110.463 100.024V100.024L107.727 97.2802ZM113.375 74.0485L116.757 72.1558L116.756 72.1557L113.375 74.0485ZM113.375 49.9515L116.756 51.8442L116.757 51.8442L113.375 49.9515ZM10.6241 74.0485L7.24284 72.1558L7.24284 72.1558L10.6241 74.0485ZM10.6241 49.9514L14.0054 48.0587L14.0054 48.0587L10.6241 49.9514ZM72.4038 36.1667L76.2788 36.1667L76.2787 36.1554L72.4038 36.1667ZM72.3662 23.2425L68.4912 23.2538V23.2538L72.3662 23.2425ZM85.3932 20.7643L85.4931 16.8906V16.8906L85.3932 20.7643ZM88.0067 103.148L88.1703 107.02L88.1703 107.02L88.0067 103.148ZM71.6069 102.579L68.8709 99.8353L68.8709 99.8353L71.6069 102.579ZM72.3737 98.1817L76.2487 98.1929L76.2787 87.8446L72.4038 87.8333L68.5288 87.8221L68.4987 98.1704L72.3737 98.1817ZM77.5833 82.6667V86.5417C78.3129 86.5417 78.8878 87.129 78.8878 87.8333H82.7628H86.6378C86.6378 82.8307 82.5749 78.7917 77.5833 78.7917V82.6667ZM77.5833 82.6667V78.7917C72.5917 78.7917 68.5288 82.8307 68.5288 87.8333H72.4038H76.2788C76.2788 87.129 76.8537 86.5417 77.5833 86.5417V82.6667ZM51.6406 20.6667V24.5417H69.7765V20.6667V16.7917H51.6406V20.6667ZM67.2071 103.333V99.4583H51.6406V103.333V107.208H67.2071V103.333ZM51.6406 103.333V99.4583C41.7647 99.4583 34.7466 99.4501 29.4222 98.7361C24.2083 98.0368 21.2029 96.725 19.0091 94.5368L16.2725 97.2802L13.5359 100.024C17.4103 103.888 22.3223 105.603 28.3921 106.417C34.3514 107.217 41.9832 107.208 51.6406 107.208V103.333ZM51.6406 20.6667V16.7917C41.9832 16.7917 34.3514 16.7835 28.3921 17.5827C22.3223 18.3967 17.4103 20.1115 13.5359 23.9763L16.2725 26.7198L19.0091 29.4632C21.2029 27.2749 24.2083 25.9632 29.4222 25.2639C34.7466 24.5498 41.7647 24.5417 51.6406 24.5417V20.6667ZM15.2573 52.9772L13.3679 56.3604C15.3607 57.4733 16.6884 59.587 16.6884 62H20.5634H24.4384C24.4384 56.6596 21.4858 52.0172 17.1466 49.594L15.2573 52.9772ZM10.3877 46.4456L14.2592 46.6084C14.6624 37.0188 15.9722 32.4926 19.0091 29.4632L16.2725 26.7198L13.5359 23.9763C8.21652 29.2825 6.92361 36.5895 6.51608 46.2828L10.3877 46.4456ZM20.5634 62H16.6884C16.6884 64.413 15.3607 66.5267 13.3679 67.6395L15.2573 71.0228L17.1466 74.406C21.4858 71.9828 24.4384 67.3403 24.4384 62H20.5634ZM10.3877 77.5544L6.51608 77.7172C6.9236 87.4104 8.21652 94.7175 13.5359 100.024L16.2725 97.2802L19.0091 94.5368C15.9722 91.5074 14.6624 86.9811 14.2592 77.3916L10.3877 77.5544ZM103.436 62H107.311C107.311 59.587 108.639 57.4733 110.631 56.3604L108.742 52.9772L106.853 49.594C102.514 52.0172 99.561 56.6596 99.561 62H103.436ZM113.612 46.4456L117.483 46.2828C117.076 36.5895 115.783 29.2825 110.463 23.9763L107.727 26.7198L104.99 29.4632C108.027 32.4926 109.337 37.0189 109.74 46.6084L113.612 46.4456ZM108.742 71.0228L110.631 67.6396C108.639 66.5267 107.311 64.413 107.311 62H103.436H99.561C99.561 67.3403 102.514 71.9828 106.853 74.406L108.742 71.0228ZM113.612 77.5544L109.74 77.3916C109.337 86.9811 108.027 91.5074 104.99 94.5368L107.727 97.2802L110.463 100.024C115.783 94.7175 117.076 87.4105 117.483 77.7172L113.612 77.5544ZM108.742 71.0228L106.853 74.406C108.32 75.2252 109.278 75.7621 109.926 76.1709C110.245 76.372 110.387 76.4793 110.43 76.5146C110.504 76.5767 110.243 76.3869 109.994 75.9413L113.375 74.0485L116.756 72.1557C116.329 71.3912 115.755 70.8628 115.374 70.5465C114.96 70.2034 114.5 69.8926 114.061 69.616C113.195 69.0694 112.015 68.4123 110.631 67.6395L108.742 71.0228ZM113.612 77.5544L117.483 77.7172C117.521 76.8312 117.562 75.9172 117.529 75.1533C117.495 74.3789 117.375 73.2605 116.757 72.1558L113.375 74.0485L109.994 75.9413C109.733 75.4744 109.771 75.1529 109.786 75.4939C109.793 75.6419 109.794 75.8581 109.785 76.1899C109.777 76.5204 109.761 76.9044 109.74 77.3916L113.612 77.5544ZM108.742 52.9772L110.631 56.3604C112.015 55.5877 113.195 54.9306 114.061 54.3839C114.5 54.1074 114.96 53.7965 115.374 53.4535C115.755 53.1372 116.329 52.6088 116.756 51.8442L113.375 49.9515L109.994 48.0587C110.243 47.6131 110.504 47.4233 110.43 47.4854C110.387 47.5207 110.245 47.628 109.926 47.8291C109.278 48.2379 108.32 48.7748 106.853 49.594L108.742 52.9772ZM113.612 46.4456L109.74 46.6084C109.761 47.0956 109.777 47.4796 109.785 47.8101C109.794 48.1419 109.793 48.3581 109.786 48.5061C109.771 48.8471 109.733 48.5256 109.994 48.0587L113.375 49.9515L116.757 51.8442C117.375 50.7395 117.495 49.6211 117.529 48.8466C117.562 48.0828 117.521 47.1688 117.483 46.2828L113.612 46.4456ZM15.2573 71.0228L13.3679 67.6395C11.9842 68.4123 10.8047 69.0694 9.93815 69.616C9.49972 69.8926 9.03984 70.2034 8.62577 70.5465C8.24391 70.8628 7.67081 71.3912 7.24284 72.1558L10.6241 74.0485L14.0054 75.9413C13.7559 76.3869 13.4949 76.5767 13.5698 76.5146C13.6125 76.4793 13.7541 76.372 14.073 76.1709C14.721 75.7621 15.6796 75.2252 17.1466 74.406L15.2573 71.0228ZM10.3877 77.5544L14.2592 77.3916C14.2388 76.9044 14.2227 76.5204 14.2142 76.1899C14.2056 75.8581 14.2066 75.6418 14.2131 75.4939C14.2281 75.1529 14.2668 75.4744 14.0054 75.9413L10.6241 74.0485L7.24284 72.1558C6.62442 73.2605 6.50466 74.3789 6.4706 75.1533C6.437 75.9172 6.47883 76.8312 6.51608 77.7172L10.3877 77.5544ZM15.2573 52.9772L17.1466 49.594C15.6796 48.7748 14.721 48.2379 14.073 47.8291C13.7541 47.628 13.6125 47.5207 13.5698 47.4854C13.4949 47.4233 13.756 47.6131 14.0054 48.0587L10.6241 49.9514L7.24284 51.8442C7.6708 52.6087 8.24389 53.1372 8.62576 53.4535C9.03983 53.7965 9.49971 54.1074 9.93814 54.3839C10.8047 54.9306 11.9842 55.5877 13.3679 56.3604L15.2573 52.9772ZM10.3877 46.4456L6.51608 46.2828C6.47883 47.1688 6.437 48.0828 6.4706 48.8466C6.50466 49.6211 6.62442 50.7395 7.24284 51.8442L10.6241 49.9514L14.0054 48.0587C14.2668 48.5256 14.2281 48.8471 14.2131 48.5061C14.2066 48.3581 14.2056 48.1419 14.2142 47.8101C14.2227 47.4796 14.2388 47.0956 14.2592 46.6084L10.3877 46.4456ZM72.4038 36.1667L76.2787 36.1554L76.2412 23.2312L72.3662 23.2425L68.4912 23.2538L68.5288 36.1779L72.4038 36.1667ZM77.5833 41.3333V37.4583C76.8537 37.4583 76.2788 36.8709 76.2788 36.1667H72.4038H68.5288C68.5288 41.1693 72.5917 45.2083 77.5833 45.2083V41.3333ZM82.7628 36.1667H78.8878C78.8878 36.8709 78.3129 37.4583 77.5833 37.4583V41.3333V45.2083C82.5749 45.2083 86.6378 41.1693 86.6378 36.1667H82.7628ZM82.7628 23.3336H78.8878V36.1667H82.7628H86.6378V23.3336H82.7628ZM85.3932 20.7643L85.2933 24.638C96.5986 24.9296 101.668 26.1497 104.99 29.4632L107.727 26.7198L110.463 23.9763C104.715 18.2427 96.5847 17.1767 85.4931 16.8906L85.3932 20.7643ZM82.7628 23.3336H86.6378C86.6378 24.056 86.0424 24.6574 85.2933 24.638L85.3932 20.7643L85.4931 16.8906C81.8547 16.7968 78.8878 19.7282 78.8878 23.3336H82.7628ZM69.7765 20.6667V24.5417C69.0772 24.5417 68.4933 23.9747 68.4912 23.2538L72.3662 23.2425L76.2412 23.2313C76.2308 19.6627 73.3305 16.7917 69.7765 16.7917V20.6667ZM88.0067 103.148L88.1703 107.02C97.8559 106.61 105.157 105.317 110.463 100.024L107.727 97.2802L104.99 94.5368C101.957 97.5628 97.4237 98.8718 87.8432 99.2766L88.0067 103.148ZM82.7628 87.8333H78.8878V98.0452H82.7628H86.6378V87.8333H82.7628ZM72.3737 98.1817L68.4987 98.1704C68.4969 98.7921 68.4953 99.2703 68.4838 99.6786C68.4723 100.089 68.4527 100.333 68.4322 100.482C68.4121 100.628 68.4043 100.579 68.4646 100.433C68.5377 100.257 68.6703 100.035 68.8709 99.8353L71.6069 102.579L74.343 105.323C75.5603 104.11 75.9551 102.666 76.1103 101.536C76.2502 100.516 76.2455 99.2981 76.2487 98.1929L72.3737 98.1817ZM67.2071 103.333V107.208C68.3122 107.208 69.5304 107.217 70.5501 107.08C71.6812 106.928 73.1257 106.537 74.343 105.323L71.6069 102.579L68.8709 99.8353C69.0714 99.6354 69.2932 99.5033 69.4698 99.4308C69.6157 99.3709 69.6651 99.3789 69.5186 99.3986C69.3695 99.4186 69.1257 99.4374 68.7153 99.4478C68.3069 99.4581 67.8287 99.4583 67.2071 99.4583V103.333ZM88.0067 103.148L87.8432 99.2766C87.2193 99.3029 86.7425 99.3228 86.3354 99.3292C85.9264 99.3356 85.6883 99.326 85.5469 99.3121C85.4093 99.2986 85.47 99.2902 85.6289 99.3509C85.8196 99.4237 86.0434 99.5539 86.24 99.7424L83.5584 102.54L80.8769 105.337C82.1385 106.546 83.6117 106.909 84.7887 107.025C85.8321 107.127 87.0673 107.066 88.1703 107.02L88.0067 103.148ZM82.7628 98.0452H78.8878C78.8878 99.1759 78.8791 100.426 79.024 101.472C79.1857 102.638 79.6026 104.115 80.8769 105.337L83.5584 102.54L86.24 99.7424C86.4449 99.9389 86.585 100.163 86.6637 100.347C86.7287 100.5 86.721 100.555 86.7006 100.407C86.6797 100.257 86.6599 100.009 86.6489 99.5891C86.6381 99.1714 86.6378 98.682 86.6378 98.0452H82.7628Z" fill="#ABABAB"/>
</svg>
