<svg width="45" height="45" viewBox="0 0 45 45" fill="none" xmlns="http://www.w3.org/2000/svg">
<rect width="45" height="45" rx="22.5" fill="#262525"/>
<path d="M12.9643 19.8438C12.7158 19.8438 12.489 19.6423 12.5004 19.379C12.5673 17.8369 12.7548 16.833 13.2801 16.0388C13.5823 15.582 13.9577 15.1846 14.3892 14.8647C15.5558 14 17.2014 14 20.4927 14H24.5074C27.7986 14 29.4443 14 30.6108 14.8647C31.0424 15.1846 31.4177 15.582 31.7199 16.0388C32.2452 16.8329 32.4327 17.8367 32.4996 19.3784C32.511 19.6421 32.2839 19.8438 32.0351 19.8438C30.6493 19.8438 29.5259 21.033 29.5259 22.5C29.5259 23.967 30.6493 25.1562 32.0351 25.1562C32.2839 25.1562 32.511 25.3579 32.4996 25.6216C32.4327 27.1634 32.2452 28.1671 31.7199 28.9612C31.4177 29.418 31.0424 29.8154 30.6108 30.1353C29.4443 31 27.7986 31 24.5074 31H20.4927C17.2014 31 15.5558 31 14.3892 30.1353C13.9577 29.8154 13.5823 29.418 13.2801 28.9612C12.7548 28.167 12.5673 27.1631 12.5004 25.6211C12.489 25.3577 12.7158 25.1562 12.9643 25.1562C14.3501 25.1562 15.4735 23.967 15.4735 22.5C15.4735 21.033 14.3501 19.8438 12.9643 19.8438Z" stroke="white" stroke-width="1.5" stroke-linejoin="round"/>
<path d="M19.5 14V31" stroke="white" stroke-width="1.5" stroke-linecap="round" stroke-linejoin="round"/>
</svg>
